<?xml version="1.0" encoding="utf-8"?>
<svg viewBox="0 0 512 512" xmlns="http://www.w3.org/2000/svg">
    <path d="M 71.743 431.98 C 49.652 431.98 31.743 414.071 31.743 391.98 L 31.743 119.98 C 31.743 97.889 49.652 79.98 71.743 79.98 L 147.633 79.98 C 155.531 79.98 163.252 82.318 169.823 86.7 L 197.663 105.26 C 204.234 109.642 211.955 111.98 219.853 111.98 L 439.743 111.98 C 461.834 111.98 479.743 129.889 479.743 151.98 L 479.743 391.98 C 479.743 414.071 461.834 431.98 439.743 431.98 M 453.948 432.083 C 453.948 432.083 408.506 431.295 384.743 432.114 M 308.634 432.114 C 309.897 432.152 221.061 432.114 202.034 432.114 M 126.06 432.134 L 71.743 431.98 M 31.743 191.98 L 479.743 191.98"
          stroke-linecap="round" stroke-linejoin="round" stroke-width="32" fill="none" stroke="currentColor"/>
    <path d="M 254.8 223.04 C 252.14 224.16 247.94 226.68 245.56 228.5 C 242.9 230.46 239.12 232 236.6 232 C 222.88 232 200.2 244.46 183.26 261.4 C 172.76 271.9 170.24 275.4 164.08 288.14 C 155.54 305.92 152.6 317.68 152.6 333.78 C 152.6 348.06 155.12 359.4 161.14 371.16 C 163.38 375.78 165.06 379.56 164.92 379.7 C 164.64 379.84 160.72 380.68 156.24 381.52 C 145.32 383.76 136.78 388.94 130.9 396.92 C 122.08 408.96 125.02 424.08 137.62 430.66 C 143.36 433.46 144.34 434.72 146.44 441.72 C 150.92 455.72 158.48 460.34 160.58 450.26 L 161.42 445.92 L 164.36 449.7 C 168.56 455.02 172.2 453.9 174.3 446.9 C 175.7 441.86 175.98 441.58 176.96 444.52 C 177.52 446.2 179.34 448.3 180.88 449.14 C 183.4 450.4 184.24 450.26 185.78 448.16 C 187.74 445.5 188.16 441.58 187.6 429.96 C 187.46 424.64 188.16 421.7 190.68 417.78 C 193.9 412.6 194.04 412.6 200.9 413.58 C 210.14 414.7 304.22 414.7 311.5 413.44 C 316.82 412.6 317.24 412.74 320.6 417.78 C 323.4 422.26 323.96 424.5 323.54 431.78 C 322.7 448.72 326.62 454.32 333.48 446.06 L 337.26 441.58 L 337.68 446.2 C 337.96 448.72 339.22 451.52 340.62 452.36 C 342.72 453.62 343.7 453.2 346.5 449.84 L 349.72 445.78 L 350.7 450.26 C 353.22 461.6 361.9 454.46 366.1 437.38 C 366.8 434.72 368.76 432.9 373.24 430.94 C 381.22 427.3 385 421.14 385 411.48 C 385 396.36 371.7 383.9 352.38 381.1 C 348.74 380.54 345.8 379.7 346.08 379.14 C 346.36 378.72 348.18 375.08 350.28 371.3 C 356.44 359.4 358.96 348.9 358.82 333.5 C 358.82 311.38 352.1 291.5 337.96 271.76 C 325.78 254.54 301 237.46 282.1 233.26 C 274.68 231.58 272.86 230.32 275.8 228.5 C 278.18 227.1 277.34 223.6 274.82 223.6 C 273.42 223.6 269.5 224.86 266.14 226.4 C 259.28 229.62 257.32 229.06 260.82 225.28 C 262.22 223.88 262.78 222.2 262.22 221.78 C 260.96 220.52 260.54 220.52 254.8 223.04 Z M 243.6 288.56 C 249.34 290.66 254.8 292.34 255.5 292.34 C 256.34 292.34 261.66 290.66 267.4 288.42 C 276.92 284.92 279.58 284.5 295.4 284.5 C 312.2 284.5 313.18 284.64 320.46 288.7 C 334.32 296.26 345.24 312.78 346.78 328.18 L 347.62 336.02 L 341.18 329.58 C 329.42 317.68 308.7 309.98 297.08 313.06 C 287.28 315.72 280.98 325.1 280.84 337 C 280.7 347.92 285.88 356.32 297.92 364.72 C 308.84 372.42 323.4 385.72 323.4 387.96 C 323.4 390.9 307.72 400 296.38 403.5 C 273.28 410.78 239.96 411.2 217.56 404.34 C 207.62 401.4 193.06 393.84 189.56 390.06 C 187.18 387.4 187.18 387.12 189.98 383.48 C 191.52 381.38 197.12 376.34 202.44 372.42 C 219.52 359.4 224.28 354.78 226.94 349.04 C 233.66 334.34 226.66 316.98 212.66 313.2 C 201.74 310.26 183.12 316.7 171.5 327.34 C 168 330.56 164.78 332.8 164.36 332.38 C 162.96 331.12 168 314.18 171.36 308.3 C 177.66 297.66 188.58 288.84 200.2 285.06 C 202.16 284.36 210.28 284.08 218.4 284.36 C 230.16 284.64 235.2 285.48 243.6 288.56 Z M 192.5 327.9 C 188.86 333.36 188.44 335.46 189.84 340.78 C 190.4 343.02 191.66 343.72 194.32 343.58 C 197.54 343.3 198.1 343.86 198.1 346.8 C 198.1 349.74 198.94 350.44 202.44 350.72 C 207.9 351.28 212.38 347.64 214.9 340.5 L 216.86 334.9 L 217 340.92 C 217 353.24 203 361.64 191.94 355.9 C 185.36 352.54 181.16 342.6 183.26 335.46 C 184.66 330.7 194.04 320.48 195.58 322.02 C 195.86 322.44 194.6 325.1 192.5 327.9 Z M 324.8 330.42 C 331.94 342.18 323.26 358 309.82 358 C 304.08 358 296.94 353.1 294.56 347.5 C 292.32 341.9 291.9 335.6 294 335.6 C 294.84 335.6 295.4 337.28 295.4 339.24 C 295.4 344.42 302.4 351 308 351 C 311.36 351 312.34 350.44 311.64 348.9 C 311.22 347.78 311.22 345.82 311.64 344.7 C 312.62 342.18 317.8 341.9 317.8 344.28 C 317.8 345.54 318.36 345.4 319.2 344 C 322.28 339.24 320.04 328.04 315.56 325.38 C 314.44 324.82 313.6 323.7 313.6 322.86 C 313.6 320.2 322.14 325.94 324.8 330.42 Z M 206.5 323.84 C 210.28 325.38 211.82 331.26 209.3 335.04 C 206.78 338.96 203.56 339.38 199.92 336.02 C 196.84 333.22 196.7 330.14 199.64 326.08 C 201.88 322.72 202.86 322.44 206.5 323.84 Z M 309.96 325.24 C 314.44 329.58 312.06 338.4 306.46 338.4 C 300.44 338.4 297.64 330.28 301.98 325.52 C 304.78 322.44 307.16 322.3 309.96 325.24 Z M 183.96 429.54 C 184.66 434.72 184.8 440.6 184.24 442.84 C 183.26 446.62 182.98 446.76 181.3 444.38 C 178.64 440.74 174.44 424.36 175.56 421.7 C 175.98 420.3 177.66 419.6 179.48 419.88 C 182.28 420.3 182.84 421.42 183.96 429.54 Z M 335.72 423.8 C 336.28 428.42 331.52 443.68 329.28 444.52 C 328.02 444.94 327.6 442.28 327.6 434.58 C 327.6 421.84 328.44 419.32 332.36 419.88 C 334.32 420.16 335.44 421.42 335.72 423.8 Z M 169.96 426.88 C 171.22 432.06 170.94 449 169.4 449 C 167.44 449 165.76 445.22 163.1 435.28 C 160.58 425.48 161 423.8 165.76 423.8 C 168 423.8 169.4 424.78 169.96 426.88 Z M 349.16 428.84 C 348.88 434.86 344.54 449 343 449 C 340.76 449 339.78 442.28 340.9 432.76 C 341.88 423.94 342.02 423.66 345.52 424.08 C 348.74 424.5 349.3 425.06 349.16 428.84 Z M 155.96 429.82 C 157.22 434.72 156.94 451.8 155.54 451.8 C 154.14 451.8 149.38 440.04 147.84 432.62 C 147 429.26 147.42 427.86 149.24 426.88 C 152.6 425.06 154.98 426.18 155.96 429.82 Z M 363.3 433.32 C 362.04 440.32 357 451.8 355.18 451.8 C 353.22 451.8 354.9 429.82 357 427.3 C 358.26 425.76 359.38 425.62 361.48 426.74 C 363.86 428 364.14 429.12 363.3 433.32 Z"
          fill="currentColor" stroke="none"/>
    <path d="M 246.4 344.28 C 238 348.76 244.86 360.8 255.78 360.8 C 264.46 360.8 272.16 350.02 266.84 345.54 C 263.76 342.88 250.46 342.18 246.4 344.28 Z"
          fill="currentColor" stroke="none"/>
    <path d="M 232.68 368.78 C 233.24 372.28 242.06 376.2 251.02 377.18 C 259.42 378.02 272.86 374.8 275.8 371.3 C 278.74 367.8 276.5 367.52 270.62 370.6 C 259.7 376.2 243.04 375.5 237.3 369.2 C 234.22 365.7 231.98 365.56 232.68 368.78 Z"
          fill="currentColor" stroke="none"/>
</svg>