<svg xmlns="http://www.w3.org/2000/svg" width="480" height="480" viewBox="0 0 480 392">
    <path stroke="currentColor" fill="none" stroke-width="32" stroke-linejoin="round" stroke-linecap="round"
          d="m56 368c-22.091 0 -40 -17.909 -40 -40l0 -272c0 -22.091 17.909 -40 40 -40l75.89 0c7.898 0 15.619 2.338 22.19 6.72l27.84 18.56c6.571 4.382 14.292 6.72 22.19 6.72l219.89 0c22.091 0 40 17.909 40 40l0 240c0 22.091 -17.909 40 -40 40m0.01 0.103l-55.01 0.031m-76.109 0l-106.6 0m-75.974 0.02l-54.317 -0.154m-40 -240l448 0"/>
    <path fill="currentColor"
          d="m239.057 159.06c-2.66 1.12 -6.86 3.64 -9.24 5.46c-2.66 1.96 -6.44 3.5 -8.96 3.5c-13.72 0 -36.4 12.46 -53.34 29.4c-10.5 10.5 -13.02 14 -19.18 26.74c-8.54 17.78 -11.48 29.54 -11.48 45.64c0 14.28 2.52 25.62 8.54 37.38c2.24 4.62 3.92 8.4 3.78 8.54c-0.28 0.14 -4.2 0.98 -8.68 1.82c-10.92 2.24 -19.46 7.42 -25.34 15.4c-8.82 12.04 -5.88 27.16 6.72 33.74c5.74 2.8 6.72 4.06 8.82 11.06c4.48 14 12.04 18.62 14.14 8.54l0.84 -4.34l2.94 3.78c4.2 5.32 7.84 4.2 9.94 -2.8c1.4 -5.04 1.68 -5.32 2.66 -2.38c0.56 1.68 2.38 3.78 3.92 4.62c2.52 1.26 3.36 1.12 4.9 -0.98c1.96 -2.66 2.38 -6.58 1.82 -18.2c-0.14 -5.32 0.56 -8.26 3.08 -12.18c3.22 -5.18 3.36 -5.18 10.22 -4.2c9.24 1.12 103.32 1.12 110.6 -0.14c5.32 -0.84 5.74 -0.7 9.1 4.34c2.8 4.48 3.36 6.72 2.94 14c-0.84 16.94 3.08 22.54 9.94 14.28l3.78 -4.48l0.42 4.62c0.28 2.52 1.54 5.32 2.94 6.16c2.1 1.26 3.08 0.84 5.88 -2.52l3.22 -4.06l0.98 4.48c2.52 11.34 11.2 4.2 15.4 -12.88c0.7 -2.66 2.66 -4.48 7.14 -6.44c7.98 -3.64 11.76 -9.8 11.76 -19.46c0 -15.12 -13.3 -27.58 -32.62 -30.38c-3.64 -0.56 -6.58 -1.4 -6.3 -1.96c0.28 -0.42 2.1 -4.06 4.2 -7.84c6.16 -11.9 8.68 -22.4 8.54 -37.8c0 -22.12 -6.72 -42 -20.86 -61.74c-12.18 -17.22 -36.96 -34.3 -55.86 -38.5c-7.42 -1.68 -9.24 -2.94 -6.3 -4.76c2.38 -1.4 1.54 -4.9 -0.98 -4.9c-1.4 0 -5.32 1.26 -8.68 2.8c-6.86 3.22 -8.82 2.66 -5.32 -1.12c1.4 -1.4 1.96 -3.08 1.4 -3.5c-1.26 -1.26 -1.68 -1.26 -7.42 1.26zm-11.2 65.52c5.74 2.1 11.2 3.78 11.9 3.78c0.84 0 6.16 -1.68 11.9 -3.92c9.52 -3.5 12.18 -3.92 28 -3.92c16.8 0 17.78 0.14 25.06 4.2c13.86 7.56 24.78 24.08 26.32 39.48l0.84 7.84l-6.44 -6.44c-11.76 -11.9 -32.48 -19.6 -44.1 -16.52c-9.8 2.66 -16.1 12.04 -16.24 23.94c-0.14 10.92 5.04 19.32 17.08 27.72c10.92 7.7 25.48 21 25.48 23.24c0 2.94 -15.68 12.04 -27.02 15.54c-23.1 7.28 -56.42 7.7 -78.82 0.84c-9.94 -2.94 -24.5 -10.5 -28 -14.28c-2.38 -2.66 -2.38 -2.94 0.42 -6.58c1.54 -2.1 7.14 -7.14 12.46 -11.06c17.08 -13.02 21.84 -17.64 24.5 -23.38c6.72 -14.7 -0.28 -32.06 -14.28 -35.84c-10.92 -2.94 -29.54 3.5 -41.16 14.14c-3.5 3.22 -6.72 5.46 -7.14 5.04c-1.4 -1.26 3.64 -18.2 7 -24.08c6.3 -10.64 17.22 -19.46 28.84 -23.24c1.96 -0.7 10.08 -0.98 18.2 -0.7c11.76 0.28 16.8 1.12 25.2 4.2zm-51.1 39.34c-3.64 5.46 -4.06 7.56 -2.66 12.88c0.56 2.24 1.82 2.94 4.48 2.8c3.22 -0.28 3.78 0.28 3.78 3.22c0 2.94 0.84 3.64 4.34 3.92c5.46 0.56 9.94 -3.08 12.46 -10.22l1.96 -5.6l0.14 6.02c0 12.32 -14 20.72 -25.06 14.98c-6.58 -3.36 -10.78 -13.3 -8.68 -20.44c1.4 -4.76 10.78 -14.98 12.32 -13.44c0.28 0.42 -0.98 3.08 -3.08 5.88zm132.3 2.52c7.14 11.76 -1.54 27.58 -14.98 27.58c-5.74 0 -12.88 -4.9 -15.26 -10.5c-2.24 -5.6 -2.66 -11.9 -0.56 -11.9c0.84 0 1.4 1.68 1.4 3.64c0 5.18 7 11.76 12.6 11.76c3.36 0 4.34 -0.56 3.64 -2.1c-0.42 -1.12 -0.42 -3.08 0 -4.2c0.98 -2.52 6.16 -2.8 6.16 -0.42c0 1.26 0.56 1.12 1.4 -0.28c3.08 -4.76 0.84 -15.96 -3.64 -18.62c-1.12 -0.56 -1.96 -1.68 -1.96 -2.52c0 -2.66 8.54 3.08 11.2 7.56zm-118.3 -6.58c3.78 1.54 5.32 7.42 2.8 11.2c-2.52 3.92 -5.74 4.34 -9.38 0.98c-3.08 -2.8 -3.22 -5.88 -0.28 -9.94c2.24 -3.36 3.22 -3.64 6.86 -2.24zm103.46 1.4c4.48 4.34 2.1 13.16 -3.5 13.16c-6.02 0 -8.82 -8.12 -4.48 -12.88c2.8 -3.08 5.18 -3.22 7.98 -0.28zm-126 104.3c0.7 5.18 0.84 11.06 0.28 13.3c-0.98 3.78 -1.26 3.92 -2.94 1.54c-2.66 -3.64 -6.86 -20.02 -5.74 -22.68c0.42 -1.4 2.1 -2.1 3.92 -1.82c2.8 0.42 3.36 1.54 4.48 9.66zm151.76 -5.74c0.56 4.62 -4.2 19.88 -6.44 20.72c-1.26 0.42 -1.68 -2.24 -1.68 -9.94c0 -12.74 0.84 -15.26 4.76 -14.7c1.96 0.28 3.08 1.54 3.36 3.92zm-165.76 3.08c1.26 5.18 0.98 22.12 -0.56 22.12c-1.96 0 -3.64 -3.78 -6.3 -13.72c-2.52 -9.8 -2.1 -11.48 2.66 -11.48c2.24 0 3.64 0.98 4.2 3.08zm179.2 1.96c-0.28 6.02 -4.62 20.16 -6.16 20.16c-2.24 0 -3.22 -6.72 -2.1 -16.24c0.98 -8.82 1.12 -9.1 4.62 -8.68c3.22 0.42 3.78 0.98 3.64 4.76zm-193.2 0.98c1.26 4.9 0.98 21.98 -0.42 21.98c-1.4 0 -6.16 -11.76 -7.7 -19.18c-0.84 -3.36 -0.42 -4.76 1.4 -5.74c3.36 -1.82 5.74 -0.7 6.72 2.94zm207.34 3.5c-1.26 7 -6.3 18.48 -8.12 18.48c-1.96 0 -0.28 -21.98 1.82 -24.5c1.26 -1.54 2.38 -1.68 4.48 -0.56c2.38 1.26 2.66 2.38 1.82 6.58z"/>
    <path fill="currentColor"
          d="m230.657 280.3c-8.4 4.48 -1.54 16.52 9.38 16.52c8.68 0 16.38 -10.78 11.06 -15.26c-3.08 -2.66 -16.38 -3.36 -20.44 -1.26z"/>
    <path fill="currentColor"
          d="m216.937 304.8c0.56 3.5 9.38 7.42 18.34 8.4c8.4 0.84 21.84 -2.38 24.78 -5.88c2.94 -3.5 0.7 -3.78 -5.18 -0.7c-10.92 5.6 -27.58 4.9 -33.32 -1.4c-3.08 -3.5 -5.32 -3.64 -4.62 -0.42z"/>
</svg>